<?xml version="1.0" encoding="UTF-8" standalone="no"?>
<svg width="158px" height="38px" viewBox="0 0 158 38" version="1.1" xmlns="http://www.w3.org/2000/svg" xmlns:xlink="http://www.w3.org/1999/xlink" xmlns:sketch="http://www.bohemiancoding.com/sketch/ns">
    <!-- Generator: Sketch 3.5.2 (25235) - http://www.bohemiancoding.com/sketch -->
    <title>logo</title>
    <desc>Created with Sketch.</desc>
    <defs></defs>
    <g id="rascunhos" stroke="none" stroke-width="1" fill="none" fill-rule="evenodd" sketch:type="MSPage">
        <g id="agronus" sketch:type="MSArtboardGroup" transform="translate(-162.000000, -20.000000)">
            <g id="logo" sketch:type="MSLayerGroup" transform="translate(162.000000, 20.000000)">
                <g id="nome_agronus" transform="translate(69.000000, 12.000000)" fill="#2C2E2A" sketch:type="MSShapeGroup">
                    <path d="M5.07405638,9.36185526 L7.50505045,9.36185526 L6.6174273,3.60013446 L5.07405638,9.36185526 L5.07405638,9.36185526 Z M7.61095252,0.391999589 C9.02755786,0.391999589 9.40811869,1.57106003 9.70390504,2.81473026 C11.9661424,12.2204975 12.5371157,14.6432282 12.5371157,15.3629322 C12.5371157,15.7778524 12.3467033,15.8868984 11.9661424,15.8868984 L10.8881068,15.8868984 C8.45658457,15.8868984 8.22418101,14.621419 7.99151335,12.5260991 L4.31293472,12.5260991 L3.61519585,15.5382237 C3.55154896,15.7560432 3.36166469,15.8868984 3.12899703,15.8868984 L2.00844214,15.8868984 C1.0991632,15.8868984 0,15.4946053 0,14.4466727 C0,12.4824807 3.89011869,2.44315584 4.77800593,0.806919819 C5.01067359,0.391999589 5.09518398,0.391999589 5.60251039,0.391999589 L7.61095252,0.391999589 L7.61095252,0.391999589 Z" id="Fill-17"></path>
                    <path d="M22.7066202,15.8868984 C21.2480237,15.8868984 20.6559228,15.1666493 20.6136677,14.2501172 C20.3178813,15.2320769 19.3452196,16.1052632 17.4638071,16.1052632 C15.2860801,16.1052632 13.1083531,14.4902911 13.1083531,9.29642763 C13.1083531,6.30665748 13.8694748,0.173907484 20.4446469,0.173907484 C23.2987211,0.173907484 25.0956231,1.48300535 25.0956231,3.57832525 C25.0956231,5.25872492 23.9539407,6.13191118 22.030273,6.13191118 C21.4173086,6.13191118 21.3750534,6.04467434 21.3536617,5.73907278 C21.2480237,4.69114021 21.4595638,3.51289762 20.1274688,3.51289762 C17.3581691,3.51289762 17.0621187,7.28834457 17.0621187,8.96874424 C17.0621187,11.7619589 17.7595935,12.7008454 18.9221395,12.7008454 C20.0004392,12.7008454 20.8040801,12.3077344 20.9308457,11.0858734 L21.0576113,9.86401234 C21.1423858,9.01263528 21.2057685,8.42296875 21.7342226,8.42296875 L22.8970326,8.42296875 C24.2922463,8.42296875 24.5671691,9.03444449 24.5671691,10.7148442 C24.5671691,11.8494683 24.3558932,14.9270206 24.2291276,15.5600329 C24.1868724,15.8214708 24.1234896,15.8868984 23.8696944,15.8868984 L22.7066202,15.8868984" id="Fill-18"></path>
                    <path d="M30.4390564,3.55651604 C30.3968012,4.58209416 30.3120267,6.04467434 30.2069169,7.63783717 C30.6719881,7.74688322 31.1156677,7.81231086 31.4964926,7.81231086 C33.2722671,7.81231086 33.5897092,6.21914803 33.5897092,5.30234334 C33.5897092,4.12410074 33.0821187,3.44719737 31.6863769,3.44719737 C31.3483353,3.44719737 30.9046558,3.4910884 30.4390564,3.55651604 L30.4390564,3.55651604 Z M28.2615935,15.8868984 C26.6759674,15.8868984 26.063003,15.2102677 26.063003,13.9445156 C26.063003,13.2248117 26.2742789,10.452861 26.485819,7.65964638 C26.697095,4.73475863 26.7816053,2.96766735 26.8452522,1.91973479 C26.9297626,0.610364309 26.9720178,0.391999589 27.2466766,0.391999589 C29.0227151,0.391999589 30.9463828,0.173907484 32.1097211,0.173907484 C35.7460445,0.173907484 37.1835134,2.09448109 37.1835134,5.04090543 C37.1835134,7.28834457 36.3378813,9.18710896 34.4350772,10.1039137 L36.2111157,12.7226546 C36.8665994,13.7043417 37.2046409,14.2064988 37.2046409,14.4684819 C37.2046409,14.8615929 36.1899881,16.1052632 34.5407151,16.1052632 C32.7649407,16.1052632 31.9193086,13.4867948 31.2638249,10.6491439 C30.7776261,10.6273347 30.3756736,10.5837163 30.0162404,10.4964794 C29.8472196,13.0718746 29.6779347,15.2975045 29.6568071,15.5600329 C29.6356795,15.7996616 29.5722967,15.8868984 29.3187656,15.8868984 L28.2615935,15.8868984 L28.2615935,15.8868984 Z" id="Fill-19"></path>
                    <path d="M42.1495549,8.8815074 C42.1495549,11.5220576 43.0583056,12.7008454 44.6228042,12.7008454 C47.2230831,12.7008454 47.7729288,8.77246135 47.7729288,6.98274301 C47.7729288,4.86588651 47.117181,3.53470683 45.4898279,3.53470683 C42.5295875,3.53470683 42.1495549,7.15748931 42.1495549,8.8815074 L42.1495549,8.8815074 Z M51.7053027,6.80826933 C51.7053027,10.2999239 50.5422285,16.1052632 44.2213798,16.1052632 C39.5698754,16.1052632 38.217181,13.0282562 38.217181,9.18710896 C38.217181,4.64752179 40.0563383,0.152098273 45.9335074,0.152098273 C50.0774214,0.152098273 51.7053027,2.61817475 51.7053027,6.80826933 L51.7053027,6.80826933 Z" id="Fill-20"></path>
                    <path d="M62.1650475,15.8868984 C61.023365,15.8868984 60.5163027,15.4946053 60.2627715,14.970639 C58.8033828,11.8712775 57.5563264,9.0562537 56.2456231,6.17552961 C56.2667507,9.29642763 56.3512611,12.4388623 56.3935163,15.5600329 C56.3935163,15.7560432 56.3090059,15.8868984 56.0552107,15.8868984 L54.8926647,15.8868984 C53.3065104,15.8868984 52.693546,15.2102677 52.693546,13.9445156 C52.693546,13.2248117 52.9050861,10.452861 53.1166261,7.65964638 C53.4544036,3.25091447 53.5397062,2.1162903 53.5819614,0.719682977 C53.5819614,0.479509046 53.6664718,0.391999589 53.9197389,0.391999589 L55.611003,0.391999589 C57.4926795,0.391999589 57.8523769,1.35215008 58.2540653,2.40008265 C60.3261543,7.79050164 60.6850593,8.53283265 61.5520831,10.5619071 C61.5520831,7.11387089 61.4887003,3.16340502 61.4887003,0.588555099 C61.4887003,0.479509046 61.5946024,0.391999589 61.8481335,0.391999589 L63.0109436,0.391999589 C64.850365,0.391999589 65.1464154,1.17740378 65.1464154,2.50858347 C65.1464154,4.64752179 64.3639021,14.9052113 64.2793917,15.5382237 C64.2793917,15.7778524 64.0889792,15.8868984 63.899095,15.8868984 L62.1650475,15.8868984" id="Fill-21"></path>
                    <path d="M71.149822,16.1052632 C67.4709792,16.1052632 66.054638,13.7918512 66.054638,10.9329363 C66.054638,8.99055345 66.6678665,2.64025658 66.7521128,1.04654852 C66.7732404,0.501318257 66.8788783,0.391999589 67.1120742,0.391999589 L68.2746202,0.391999589 C70.0084036,0.391999589 70.4526113,1.15559457 70.4526113,2.64025658 C70.4526113,2.92404893 70.0084036,9.14349054 70.0084036,9.90763076 C70.0084036,10.8893178 70.0295312,12.7008454 71.5306469,12.7008454 C73.4757062,12.7008454 73.7928843,9.60202919 73.8773947,8.40115954 C74.1100623,5.43347122 74.384457,1.81068873 74.384457,1.06835773 C74.384457,0.479509046 74.4478398,0.391999589 74.7227626,0.391999589 L75.8855727,0.391999589 C77.7883769,0.391999589 77.9576617,1.15559457 77.9576617,1.96335321 C77.9576617,2.70568421 77.8095045,6.59044984 77.5979644,8.77246135 C77.3446973,11.3914749 76.5410564,16.1052632 71.149822,16.1052632" id="Fill-22"></path>
                    <path d="M88.7977033,3.40357895 C88.7977033,5.01909622 87.8889525,5.91354646 86.2610712,5.91354646 C85.7534807,5.91354646 85.6689703,5.82630962 85.6689703,5.52070806 C85.6689703,4.93131414 85.6058516,3.4910884 84.3160119,3.4910884 C83.4281246,3.4910884 82.5822285,4.12410074 82.5822285,5.01909622 C82.5822285,7.39766324 88.4805252,6.59044984 88.4805252,11.5220576 C88.4805252,14.0974527 86.8742997,16.1052632 83.5968813,16.1052632 C80.7853264,16.1052632 78.6498546,14.6432282 78.6498546,13.7043417 C78.6498546,11.7840407 78.8405312,10.9986365 79.3898487,10.9986365 C80.172362,10.9986365 81.0602493,12.7008454 83.0470356,12.7008454 C83.8506766,12.7008454 84.6331899,12.417053 84.6331899,11.5874852 C84.6331899,9.38366447 79.157181,10.4310518 79.157181,5.34596176 C79.157181,1.57106003 82.1805401,0.173907484 84.8869852,0.173907484 C87.5083917,0.173907484 88.7977033,1.48300535 88.7977033,3.40357895" id="Fill-23"></path>
                </g>
                <g id="agronus_logo" sketch:type="MSShapeGroup">
                    <path d="M45.5930366,28.2468166 C41.9690564,16.9958935 35.3058881,7.73311243 26.2819178,1.40262722 C23.4611158,-0.579443787 19.4440861,0.632059172 17.626403,3.69656805 C15.8002941,6.76939645 16.3828089,10.2973254 18.6689178,11.9133373 C23.2784822,15.1473846 27.1527297,19.2947811 30.1661851,24.174071 L35.708502,18.8974675 L30.6794723,25.0269349 C32.3837495,27.9297751 33.7915317,31.0790533 34.8745812,34.4412663 C35.8032347,37.2926154 38.7479178,38.6682604 41.7982644,37.2975621 C44.8399574,35.9347337 46.7289178,31.7646272 45.5930366,28.2468166" id="Fill-1" fill="#F8CB58"></path>
                    <path d="M22.0948931,14.6068178 C22.6894772,15.1280249 23.2699426,15.6656462 23.8344673,16.2205811 C23.8406158,16.2149598 23.8467644,16.2093385 23.853596,16.2037172 C25.2126455,15.0835041 27.9890416,13.208013 31.3340614,13.208013 C34.6822693,13.208013 38.2404376,14.9811964 40.9300713,18.6154805 C39.6099624,16.4371136 37.1473683,13.5873385 34.6601802,10.6869716 C33.5042594,10.271445 32.2547446,10.043445 30.9512594,10.043445 C27.2698931,10.043445 24.0166455,11.8555278 22.0948931,14.6068178" id="Fill-3" fill="#897230"></path>
                    <path d="M26.2819634,1.16576805 L26.2703495,1.21748402 C24.2925772,-0.045060355 21.7502802,-0.21392426 19.7873099,1.16576805 C10.7633396,7.49580355 4.09994356,16.7588095 0.476191089,28.0097325 C-0.659917822,31.5273183 1.22904257,35.6976497 4.27073564,37.0609278 C7.32108218,38.4314012 10.2659931,37.0555314 11.1944188,34.2041822 C11.9386168,31.8940521 12.8397158,29.6873538 13.8808644,27.5890343 L8.75664653,21.960987 L14.6494287,26.1099574 C17.0853792,21.6198864 20.2031317,17.6766556 23.9234386,14.4100047 C26.6631713,12.1527148 35.2355673,6.77605207 42.5044782,20.3458746 C42.5044782,20.3458746 36.4393099,7.69254911 26.2819634,1.16576805" id="Fill-5" fill="#84BDCD"></path>
                    <path d="M9.95931881,30.9612982 C6.2702099,27.8414757 4.35802178,23.4339254 4.31930891,18.987026 C4.29380396,18.9935467 4.26784356,18.9984935 4.24233861,19.0050142 C4.22184356,19.0441385 4.20248713,19.0837124 4.18199208,19.1228367 C3.64183366,24.1631207 5.53830891,29.3724935 9.73159604,32.9186355 C10.2189228,33.3310142 10.7244673,33.7087657 11.2445861,34.0539136 C11.4338238,33.4728959 11.6360416,32.901097 11.8448634,32.3333456 C11.1933485,31.9265882 10.562101,31.4712627 9.95931881,30.9612982" id="Fill-7" fill="#4A6D75"></path>
                    <path d="M34.5026644,30.9801858 C34.2801792,31.1681621 34.0547337,31.3500675 33.8274663,31.527026 C34.1191792,32.2690379 34.3958624,33.0218426 34.6543277,33.7872391 C35.0075257,33.5268604 35.3566248,33.2586118 35.6963871,32.971026 C39.6380406,29.6375941 41.8975059,25.0865882 42.396902,20.3624462 C42.2871396,20.140742 42.1723673,19.9228604 42.0598723,19.7034047 C40.7053772,23.9443396 38.1742386,27.8747538 34.5026644,30.9801858" id="Fill-9" fill="#887231"></path>
                    <path d="M18.6443465,29.1572201 C18.6083663,29.3571136 18.5776238,29.557232 18.5477921,29.7575751 C18.4491881,30.4505692 18.4027327,31.0988178 18.3829208,31.8392556 L18.3653861,32.5147112 L8.75662376,21.9610544 L18.6443465,29.1572201 Z M42.9630891,13.9844272 C36.9434653,12.3634686 30.2427228,13.619942 25.1469703,17.9299065 C23.487099,19.3338828 22.1273663,20.9546166 21.0695941,22.7120604 C20.4456337,21.9426166 19.740604,21.2192675 18.9542772,20.5543799 C14.7320693,16.9830544 9.17973267,15.9419893 4.19214851,17.2852556 C3.61441584,22.3581432 5.50929703,27.6154095 9.73150495,31.1860604 C12.2997624,33.3581314 15.359901,34.5905456 18.4856238,34.9231018 L35.7085248,18.897445 L22.2225545,35.3350308 C27.1559406,35.6824272 32.2241386,34.1891846 36.2778317,30.7610899 C41.3731287,26.4515751 43.660604,20.1069243 42.9630891,13.9844272 L42.9630891,13.9844272 Z" id="Fill-11" fill="#579E44"></path>
                    <g id="Group-17" transform="translate(14.574257, 22.485207)" fill="#3B6433">
                        <path d="M3.79256337,10.014484 L3.79119703,10.0293243 L1.33475149,7.33109941 C0.777741584,8.6869574 0.378315842,10.1071231 0.145810891,11.5783302 C1.78427624,12.1647444 3.91166238,12.4377148 3.91166238,12.4377148 C3.82057327,11.6367917 3.78459307,10.8309219 3.79256337,10.014484" id="Fill-13"></path>
                        <path d="M6.48076238,0.22903432 C4.82681188,1.67258462 3.33591089,3.4783716 2.27381188,5.36510533 L4.07008911,6.67194556 C4.07008911,6.67194556 5.32028713,2.15781538 6.48076238,0.22903432 C6.47051485,0.216667456 6.48076238,0.22903432 6.48076238,0.22903432" id="Fill-15"></path>
                    </g>
                </g>
            </g>
        </g>
    </g>
</svg>